<?xml version="1.0" encoding="UTF-8" standalone="no"?>
<svg
   xmlns:dc="http://purl.org/dc/elements/1.1/"
   xmlns:cc="http://creativecommons.org/ns#"
   xmlns:rdf="http://www.w3.org/1999/02/22-rdf-syntax-ns#"
   xmlns:svg="http://www.w3.org/2000/svg"
   xmlns="http://www.w3.org/2000/svg"
   xmlns:sodipodi="http://sodipodi.sourceforge.net/DTD/sodipodi-0.dtd"
   xmlns:inkscape="http://www.inkscape.org/namespaces/inkscape"
   version="1.1"
   id="svg2"
   xml:space="preserve"
   width="550"
   height="250"
   viewBox="0 0 550.00203 250"
   sodipodi:docname="logo.svg"
   inkscape:version="1.0.1 (0767f8302a, 2020-10-17)"><metadata
     id="metadata8"><rdf:RDF><cc:Work
         rdf:about=""><dc:format>image/svg+xml</dc:format><dc:type
           rdf:resource="http://purl.org/dc/dcmitype/StillImage" /><dc:title></dc:title></cc:Work></rdf:RDF></metadata><defs
     id="defs6"><clipPath
       clipPathUnits="userSpaceOnUse"
       id="clipPath18"><path
         d="M 0,792 H 612 V 0 H 0 Z"
         id="path16"
         inkscape:connector-curvature="0" /></clipPath></defs><sodipodi:namedview
     pagecolor="#ffffff"
     bordercolor="#666666"
     borderopacity="1"
     objecttolerance="10"
     gridtolerance="10"
     guidetolerance="10"
     inkscape:pageopacity="0"
     inkscape:pageshadow="2"
     inkscape:window-width="1680"
     inkscape:window-height="995"
     id="namedview4"
     showgrid="false"
     inkscape:zoom="0.59625"
     inkscape:cx="200"
     inkscape:cy="401.57233"
     inkscape:window-x="1366"
     inkscape:window-y="27"
     inkscape:window-maximized="1"
     inkscape:current-layer="g14"
     inkscape:document-rotation="0"
     units="px"
     width="1188mm" /><g
     id="g10"
     inkscape:groupmode="layer"
     inkscape:label="SAUC LOGO"
     transform="matrix(1.3333333,0,0,-1.3333333,0,1056)"><g
       id="g12"><g
         id="g14"
         clip-path="url(#clipPath18)"><g
           id="g20"
           transform="translate(12.222025,674.84069)"><path
             d="m 0,0 c 0,-7.384 5.986,-13.37 13.37,-13.37 h 361.183 c 7.384,0 13.369,5.986 13.369,13.37 V 46.76 L 0,48.282 Z"
             style="fill:#010101;fill-opacity:1;fill-rule:nonzero;stroke:none"
             id="path22"
             inkscape:connector-curvature="0" /></g><g
           id="g24"
           transform="translate(377.51251,782.79629)"><path
             d="m 0,0 h -342.659 c -2.395,0 -4.703,-0.375 -6.87,-1.065 H 6.871 C 4.704,-0.375 2.396,0 0,0"
             style="fill:#0078b1;fill-opacity:1;fill-rule:nonzero;stroke:none"
             id="path26"
             inkscape:connector-curvature="0" /></g><g
           id="g28"
           transform="translate(384.38361,781.73129)"><path
             d="m 0,0 h -356.4 c -9.14,-2.909 -15.762,-11.463 -15.762,-21.567 V -58.609 L 15.761,-60.13 v 38.563 C 15.761,-11.463 9.14,-2.909 0,0"
             style="fill:#0078b1;fill-opacity:1;fill-rule:nonzero;stroke:none"
             id="path30"
             inkscape:connector-curvature="0" /></g><g
           id="g32"
           transform="translate(57.251325,690.62879)"><path
             d="m 0,0 v 9.887 h 42.428 c 2.646,0 4.683,0.674 6.111,2.025 1.427,1.348 2.141,3.139 2.141,5.371 0,2.439 -0.714,4.268 -2.141,5.488 -1.428,1.22 -3.465,1.831 -6.111,1.831 H 16.427 c -2.649,0 -5.049,0.4 -7.203,1.205 -2.154,0.804 -3.969,1.921 -5.448,3.349 -1.48,1.426 -2.622,3.126 -3.425,5.098 -0.807,1.973 -1.207,4.126 -1.207,6.462 0,2.284 0.375,4.398 1.129,6.345 0.75,1.946 1.868,3.62 3.347,5.021 1.478,1.401 3.308,2.503 5.488,3.309 2.179,0.804 4.67,1.207 7.474,1.207 H 57.22 V 46.71 H 16.582 c -2.285,0 -4.048,-0.61 -5.295,-1.829 -1.245,-1.22 -1.868,-2.919 -1.868,-5.099 0,-2.18 0.635,-3.867 1.908,-5.06 1.271,-1.195 2.997,-1.791 5.177,-1.791 h 25.924 c 5.761,0 10.133,-1.35 13.117,-4.048 2.984,-2.699 4.476,-6.8 4.476,-12.3 0,-2.389 -0.363,-4.594 -1.089,-6.618 C 58.205,7.941 57.115,6.189 55.663,4.71 54.209,3.231 52.379,2.076 50.174,1.246 47.967,0.415 45.387,0 42.428,0 Z"
             style="fill:#ffffff;fill-opacity:1;fill-rule:nonzero;stroke:none"
             id="path34"
             inkscape:connector-curvature="0" /></g><g
           id="g36"
           transform="translate(60.637025,694.01449)"><path
             d="m 0,0 h 39.042 c 2.536,0 4.74,0.347 6.554,1.028 1.731,0.653 3.166,1.55 4.265,2.669 1.117,1.136 1.934,2.453 2.499,4.027 0.59,1.647 0.89,3.488 0.89,5.472 0,4.541 -1.1,7.743 -3.362,9.791 C 47.56,25.092 43.91,26.16 39.042,26.16 H 13.119 c -3.061,0 -5.583,0.911 -7.496,2.709 -1.973,1.849 -2.975,4.382 -2.975,7.527 0,3.112 0.971,5.642 2.884,7.517 1.899,1.858 4.477,2.797 7.664,2.797 h 37.252 v 3.116 H 13.196 c -2.388,0 -4.508,-0.335 -6.301,-0.997 C 5.157,48.187 3.7,47.316 2.564,46.239 1.44,45.175 0.617,43.938 0.046,42.457 -0.553,40.91 -0.856,39.186 -0.856,37.331 c 0,-1.889 0.321,-3.631 0.954,-5.18 0.631,-1.549 1.495,-2.838 2.642,-3.944 1.138,-1.098 2.578,-1.978 4.283,-2.614 1.761,-0.658 3.786,-0.992 6.018,-0.992 h 26.001 c 3.461,0 6.257,-0.889 8.31,-2.641 1.52,-1.299 3.328,-3.751 3.328,-8.063 0,-3.144 -1.107,-5.852 -3.201,-7.831 C 45.41,4.109 42.571,3.116 39.042,3.116 H 0 Z M 39.042,-6.771 H -6.771 V 9.887 h 45.813 c 1.741,0 3.015,0.369 3.786,1.098 0.464,0.439 1.081,1.219 1.081,2.912 0,2.098 -0.719,2.714 -0.955,2.915 -0.791,0.675 -2.107,1.018 -3.912,1.018 H 13.041 c -3.044,0 -5.867,0.478 -8.388,1.42 -2.579,0.963 -4.805,2.337 -6.614,4.084 -1.815,1.75 -3.231,3.856 -4.21,6.258 -0.965,2.361 -1.456,4.966 -1.456,7.739 0,2.695 0.457,5.241 1.357,7.566 0.927,2.405 2.333,4.512 4.177,6.257 1.803,1.71 4.039,3.065 6.643,4.027 2.547,0.94 5.455,1.416 8.646,1.416 H 57.219 V 39.939 H 13.196 c -1.356,0 -2.341,-0.291 -2.928,-0.864 -0.207,-0.204 -0.849,-0.833 -0.849,-2.679 0,-1.806 0.631,-2.396 0.838,-2.591 0.232,-0.218 0.931,-0.874 2.862,-0.874 h 25.923 c 6.598,0 11.775,-1.657 15.388,-4.923 3.71,-3.357 5.591,-8.34 5.591,-14.812 0,-2.764 -0.433,-5.375 -1.288,-7.759 -0.891,-2.481 -2.25,-4.662 -4.041,-6.485 -1.796,-1.827 -4.053,-3.26 -6.711,-4.261 -2.579,-0.97 -5.585,-1.462 -8.939,-1.462"
             style="fill:#ffffff;fill-opacity:1;fill-rule:nonzero;stroke:none"
             id="path38"
             inkscape:connector-curvature="0" /></g><g
           id="g40"
           transform="translate(325.59941,690.62879)"><path
             d="m 0,0 c -3.944,0 -7.591,0.74 -10.938,2.219 -3.347,1.479 -6.253,3.504 -8.718,6.073 -2.467,2.568 -4.388,5.617 -5.761,9.146 -1.377,3.53 -2.063,7.344 -2.063,11.445 0,4.152 0.686,7.94 2.063,11.366 1.373,3.425 3.294,6.345 5.761,8.758 2.465,2.413 5.371,4.282 8.718,5.605 3.347,1.324 6.994,1.986 10.938,1.986 H 30.673 V 46.71 H 0 c -2.544,0 -4.893,-0.454 -7.045,-1.362 -2.154,-0.909 -4.009,-2.168 -5.566,-3.775 -1.557,-1.61 -2.778,-3.531 -3.66,-5.761 -0.882,-2.233 -1.323,-4.698 -1.323,-7.396 0,-2.647 0.441,-5.113 1.323,-7.396 0.882,-2.285 2.103,-4.243 3.66,-5.877 1.557,-1.635 3.412,-2.92 5.566,-3.854 C -4.893,10.354 -2.544,9.887 0,9.887 H 30.673 V 0 Z"
             style="fill:#ffffff;fill-opacity:1;fill-rule:nonzero;stroke:none"
             id="path42"
             inkscape:connector-curvature="0" /></g><g
           id="g44"
           transform="translate(325.59941,743.84069)"><path
             d="m 0,0 c -3.498,0 -6.759,-0.588 -9.693,-1.748 -2.91,-1.151 -5.465,-2.791 -7.594,-4.876 -2.12,-2.073 -3.798,-4.629 -4.987,-7.599 -1.209,-3.006 -1.821,-6.404 -1.821,-10.106 0,-3.663 0.616,-7.099 1.831,-10.213 1.205,-3.097 2.904,-5.799 5.049,-8.034 2.148,-2.237 4.72,-4.028 7.646,-5.321 2.897,-1.28 6.118,-1.929 9.569,-1.929 h 27.288 v 3.116 H 0 c -2.998,0 -5.823,0.565 -8.393,1.681 -2.561,1.112 -4.805,2.667 -6.67,4.625 -1.858,1.951 -3.327,4.303 -4.366,6.992 -1.027,2.659 -1.55,5.558 -1.55,8.616 0,3.116 0.524,6.024 1.559,8.64 1.045,2.638 2.516,4.949 4.376,6.871 1.871,1.931 4.117,3.458 6.683,4.541 2.562,1.08 5.376,1.628 8.361,1.628 H 27.288 V 0 Z M 34.059,-56.597 H 0 c -4.4,0 -8.539,0.844 -12.307,2.507 -3.737,1.652 -7.032,3.948 -9.793,6.825 -2.765,2.882 -4.944,6.335 -6.473,10.264 -1.521,3.9 -2.293,8.164 -2.293,12.672 0,4.571 0.777,8.82 2.307,12.628 1.541,3.845 3.742,7.182 6.536,9.916 2.777,2.719 6.087,4.85 9.84,6.333 C -8.452,6.023 -4.354,6.771 0,6.771 H 34.059 V -9.887 H 0 c -2.077,0 -4.005,-0.369 -5.729,-1.096 -1.745,-0.737 -3.201,-1.722 -4.451,-3.012 -1.237,-1.279 -2.227,-2.845 -2.943,-4.651 -0.72,-1.821 -1.085,-3.89 -1.085,-6.15 0,-2.22 0.369,-4.296 1.095,-6.175 0.717,-1.857 1.711,-3.458 2.954,-4.763 1.253,-1.316 2.713,-2.325 4.461,-3.084 1.715,-0.744 3.632,-1.121 5.698,-1.121 h 34.059 z"
             style="fill:#ffffff;fill-opacity:1;fill-rule:nonzero;stroke:none"
             id="path46"
             inkscape:connector-curvature="0" /></g><g
           id="g48"
           transform="translate(229.26741,750.71079)"><path
             d="m 0,0 v -41.078 c 0,0 0.388,-8.236 8.935,-7.772 h 25.638 c 0,0 5.244,1.848 5.05,7.575 L 39.629,0 h 15.727 c 0,0 1.312,-34.146 0,-45.422 -0.805,-6.919 -4.467,-18.303 -20.783,-18.17 l -29.718,-0.09 c 0,0 -17.834,0.026 -20.588,17.667 -1.774,11.362 0,46.015 0,46.015 z"
             style="fill:#ffffff;fill-opacity:1;fill-rule:nonzero;stroke:none"
             id="path50"
             inkscape:connector-curvature="0" /></g><path
           d="m 55.869425,637.82759 h 2.61 v -26.117 h -2.61 z"
           style="fill:#ffffff;fill-opacity:1;fill-rule:nonzero;stroke:none"
           id="path52"
           inkscape:connector-curvature="0" /><path
           d="m 225.44741,637.82759 h 2.609 v -26.117 h -2.609 z"
           style="fill:#ffffff;fill-opacity:1;fill-rule:nonzero;stroke:none"
           id="path54"
           inkscape:connector-curvature="0" /><path
           d="m 165.70341,612.45359 h 1.904 v 24.969 h -1.904 z"
           style="fill:#ffffff;fill-opacity:1;fill-rule:nonzero;stroke:none"
           id="path58"
           inkscape:connector-curvature="0" /><g
           id="g60"
           transform="translate(179.91091,612.37589)"><path
             d="M 0,0 3.013,0.073 -12.304,21.026 V 17.641 Z"
             style="fill:#ffffff;fill-opacity:1;fill-rule:nonzero;stroke:none"
             id="path62"
             inkscape:connector-curvature="0" /></g><g
           id="g64"
           transform="translate(177.17221,620.94719)"><path
             d="m 0,0 -1.012,1.954 c 7.11,3.678 6.235,6.429 5.309,9.342 l -0.091,0.286 c -1.571,4.995 -12.467,3.04 -12.58,3.021 l -0.417,2.161 c 0.528,0.1 12.915,2.404 15.097,-4.521 l 0.088,-0.28 C 7.392,8.826 8.757,4.529 0,0"
             style="fill:#ffffff;fill-opacity:1;fill-rule:nonzero;stroke:none"
             id="path66"
             inkscape:connector-curvature="0" /></g><g
           id="g68"
           transform="translate(72.859725,637.82799)"><path
             d="M 0,0 H -0.568 L 0.639,-2.838 2.202,-6.424 19.37,-26.117 h 0.471 l -2.856,6.554 z"
             style="fill:#ffffff;fill-opacity:1;fill-rule:nonzero;stroke:none"
             id="path70"
             inkscape:connector-curvature="0" /></g><g
           id="g72"
           transform="translate(92.92122,638.14539)"><path
             d="M 0,0 H -2.574 V -19.414 L 0,-25.32 Z"
             style="fill:#ffffff;fill-opacity:1;fill-rule:nonzero;stroke:none"
             id="path74"
             inkscape:connector-curvature="0" /></g><g
           id="g76"
           transform="translate(72.079425,611.71079)"><path
             d="M 0,0 H 2.699 V 18.799 L 0,24.99 Z"
             style="fill:#ffffff;fill-opacity:1;fill-rule:nonzero;stroke:none"
             id="path78"
             inkscape:connector-curvature="0" /></g><g
           id="g80"
           transform="translate(282.42271,611.71079)"><path
             d="M 0,0 H 2.698 V 19.082 L 0,25.272 Z"
             style="fill:#ffffff;fill-opacity:1;fill-rule:nonzero;stroke:none"
             id="path82"
             inkscape:connector-curvature="0" /></g><g
           id="g84"
           transform="translate(303.26451,637.82799)"><path
             d="M 0,0 H -2.575 V -19.135 L 0,-25.041 Z"
             style="fill:#ffffff;fill-opacity:1;fill-rule:nonzero;stroke:none"
             id="path86"
             inkscape:connector-curvature="0" /></g><g
           id="g88"
           transform="translate(283.25571,637.82799)"><path
             d="M 0,0 H -0.477 L 2.445,-6.703 19.37,-26.117 h 0.586 v 0.019 l -2.725,6.249 z"
             style="fill:#ffffff;fill-opacity:1;fill-rule:nonzero;stroke:none"
             id="path90"
             inkscape:connector-curvature="0" /></g><g
           id="g92"
           transform="translate(127.98661,637.88069)"><path
             d="m 0,0 h -2.841 l -8.249,-18.921 0.377,-5.703 z"
             style="fill:#ffffff;fill-opacity:1;fill-rule:nonzero;stroke:none"
             id="path94"
             inkscape:connector-curvature="0" /></g><g
           id="g96"
           transform="translate(116.06671,617.65029)"><path
             d="m 0,0 -8.655,20.178 h -2.841 L -0.293,-5.939 h 0.568 l 0.282,0.647"
             style="fill:#ffffff;fill-opacity:1;fill-rule:nonzero;stroke:none"
             id="path98"
             inkscape:connector-curvature="0" /></g><path
           d="m 154.88541,637.82759 h -11.968 v -2.558 h 11.968 z"
           style="fill:#ffffff;fill-opacity:1;fill-rule:nonzero;stroke:none"
           id="path100"
           inkscape:connector-curvature="0" /><path
           d="m 139.70641,611.71059 h 2.575 v 26.117 h -2.575 z"
           style="fill:#ffffff;fill-opacity:1;fill-rule:nonzero;stroke:none"
           id="path102"
           inkscape:connector-curvature="0" /><path
           d="m 154.77841,614.26759 h -11.862 v -2.557 h 11.862 z"
           style="fill:#ffffff;fill-opacity:1;fill-rule:nonzero;stroke:none"
           id="path104"
           inkscape:connector-curvature="0" /><path
           d="m 154.77841,627.08659 h -11.862 v -2.557 h 11.862 z"
           style="fill:#ffffff;fill-opacity:1;fill-rule:nonzero;stroke:none"
           id="path106"
           inkscape:connector-curvature="0" /><path
           d="m 332.30941,637.82759 h -12.006 v -2.558 h 12.006 z"
           style="fill:#ffffff;fill-opacity:1;fill-rule:nonzero;stroke:none"
           id="path108"
           inkscape:connector-curvature="0" /><path
           d="m 332.20341,627.08659 h -11.899 v -2.557 h 11.899 z"
           style="fill:#ffffff;fill-opacity:1;fill-rule:nonzero;stroke:none"
           id="path110"
           inkscape:connector-curvature="0" /><path
           d="m 316.91941,611.71059 h 2.537 v 26.117 h -2.537 z"
           style="fill:#ffffff;fill-opacity:1;fill-rule:nonzero;stroke:none"
           id="path112"
           inkscape:connector-curvature="0" /><path
           d="m 332.20341,614.26759 h -11.899 v -2.557 h 11.899 z"
           style="fill:#ffffff;fill-opacity:1;fill-rule:nonzero;stroke:none"
           id="path114"
           inkscape:connector-curvature="0" /><g
           id="g116"
           transform="translate(199.58571,615.04869)"><path
             d="M 0,0 C -1.027,0.727 -1.904,1.753 -2.631,3.08 L -4.877,1.732 c 1.976,-3.583 4.914,-5.422 8.794,-5.557 v 2.631 C 2.294,-1.131 0.978,-0.744 0,0"
             style="fill:#ffffff;fill-opacity:1;fill-rule:nonzero;stroke:none"
             id="path118"
             inkscape:connector-curvature="0" /></g><g
           id="g120"
           transform="translate(209.54081,633.85149)"><path
             d="M 0,0 1.925,1.669 C -0.073,3.668 -2.5,4.686 -5.35,4.739 V 2.163 C -3.192,2.112 -1.402,1.402 0,0"
             style="fill:#ffffff;fill-opacity:1;fill-rule:nonzero;stroke:none"
             id="path122"
             inkscape:connector-curvature="0" /></g><g
           id="g124"
           transform="translate(200.48421,629.03899)"><path
             d="m 0,0 c -0.941,0.771 -1.412,1.754 -1.412,2.952 0,2.636 1.484,3.974 4.431,4.031 V 9.547 C 0.97,9.506 -0.705,8.857 -1.989,7.572 -3.359,6.289 -4.043,4.749 -4.043,2.952 c 0,-2.097 0.684,-3.701 2.054,-4.813 0.94,-0.77 2.48,-1.54 4.62,-2.311 0.14,-0.052 0.253,-0.096 0.388,-0.146 v 2.816 C 1.685,-1.018 0.665,-0.518 0,0"
             style="fill:#ffffff;fill-opacity:1;fill-rule:nonzero;stroke:none"
             id="path126"
             inkscape:connector-curvature="0" /></g><g
           id="g128"
           transform="translate(210.01251,624.67469)"><path
             d="m 0,0 c -0.471,0.342 -1.177,0.738 -2.117,1.187 -0.943,0.45 -2.14,0.931 -3.595,1.445 -0.077,0.025 -0.141,0.052 -0.216,0.077 v -2.822 c 0.793,-0.299 1.519,-0.578 2.11,-0.818 0.791,-0.321 1.401,-0.609 1.829,-0.866 1.412,-1.112 2.117,-2.418 2.117,-3.915 0,-3.423 -2.012,-5.134 -6.032,-5.134 -0.008,0 -0.015,10e-4 -0.024,10e-4 v -2.631 c 0.009,0 0.016,-10e-4 0.024,-10e-4 2.396,0 4.45,0.727 6.161,2.182 1.668,1.412 2.503,3.274 2.503,5.583 0,2.396 -0.921,4.3 -2.76,5.712"
             style="fill:#ffffff;fill-opacity:1;fill-rule:nonzero;stroke:none"
             id="path130"
             inkscape:connector-curvature="0" /></g><g
           id="g132"
           transform="translate(344.36801,629.03899)"><path
             d="m 0,0 c -0.941,0.771 -1.412,1.754 -1.412,2.952 0,2.695 1.54,4.043 4.621,4.043 0.031,0 0.06,-0.008 0.091,-0.008 v 2.571 c -0.03,0 -0.061,0.004 -0.091,0.004 -2.141,0 -3.873,-0.664 -5.198,-1.99 -1.37,-1.283 -2.055,-2.823 -2.055,-4.62 0,-2.097 0.685,-3.701 2.055,-4.813 0.94,-0.77 2.48,-1.54 4.62,-2.311 0.242,-0.09 0.443,-0.167 0.669,-0.252 v 2.82 C 1.823,-1.088 0.711,-0.554 0,0"
             style="fill:#ffffff;fill-opacity:1;fill-rule:nonzero;stroke:none"
             id="path134"
             inkscape:connector-curvature="0" /></g><g
           id="g136"
           transform="translate(343.46951,615.04869)"><path
             d="M 0,0 C -1.027,0.727 -1.904,1.753 -2.632,3.08 L -4.878,1.732 C -2.853,-1.937 0.176,-3.79 4.198,-3.841 V -1.21 C 2.439,-1.186 1.035,-0.788 0,0"
             style="fill:#ffffff;fill-opacity:1;fill-rule:nonzero;stroke:none"
             id="path138"
             inkscape:connector-curvature="0" /></g><g
           id="g140"
           transform="translate(356.92071,618.96279)"><path
             d="M 0,0 C 0,2.396 -0.921,4.3 -2.76,5.712 -3.231,6.054 -3.938,6.45 -4.878,6.899 -5.805,7.341 -6.982,7.815 -8.406,8.319 V 5.492 C -7.729,5.235 -7.1,4.992 -6.579,4.781 -5.788,4.46 -5.178,4.172 -4.749,3.915 -3.338,2.803 -2.632,1.497 -2.632,0 c 0,-3.345 -1.935,-5.043 -5.774,-5.119 v -2.626 c 2.282,0.053 4.255,0.761 5.902,2.162 C -0.835,-4.171 0,-2.31 0,0"
             style="fill:#ffffff;fill-opacity:1;fill-rule:nonzero;stroke:none"
             id="path142"
             inkscape:connector-curvature="0" /></g><g
           id="g144"
           transform="translate(353.58281,633.85149)"><path
             d="M 0,0 1.925,1.669 C -0.006,3.602 -2.341,4.612 -5.068,4.727 V 2.139 C -3.04,2.033 -1.339,1.34 0,0"
             style="fill:#ffffff;fill-opacity:1;fill-rule:nonzero;stroke:none"
             id="path146"
             inkscape:connector-curvature="0" /></g><g
           id="g148"
           transform="translate(269.88461,624.77819)"><path
             d="m 0,0 c 0,3.858 -1.332,7.107 -3.997,9.747 -2.555,2.53 -5.709,3.834 -9.451,3.939 v -2.541 c 1.833,-0.06 3.574,-0.544 5.219,-1.488 1.754,-1.007 3.115,-2.348 4.082,-4.024 0.965,-1.677 1.449,-3.551 1.449,-5.624 0,-2.085 -0.484,-3.98 -1.449,-5.686 -0.967,-1.706 -2.312,-3.05 -4.038,-4.034 -1.619,-0.922 -3.378,-1.395 -5.263,-1.451 v -2.55 c 3.708,0.062 6.864,1.383 9.46,3.983 C -1.329,-7.066 0,-3.823 0,0"
             style="fill:#ffffff;fill-opacity:1;fill-rule:nonzero;stroke:none"
             id="path150"
             inkscape:connector-curvature="0" /></g><g
           id="g152"
           transform="translate(247.97341,616.79969)"><path
             d="m 0,0 c -2.151,2.139 -3.227,4.76 -3.227,7.863 0,2.097 0.487,3.998 1.458,5.703 0.973,1.706 2.324,3.063 4.055,4.07 1.713,0.996 3.526,1.496 5.437,1.507 v 2.539 c -0.02,0.001 -0.037,0.003 -0.057,0.003 -2.44,0 -4.708,-0.607 -6.805,-1.82 -2.096,-1.213 -3.751,-2.89 -4.965,-5.033 -1.214,-2.143 -1.821,-4.469 -1.821,-6.978 0,-3.764 1.332,-6.971 3.997,-9.623 2.628,-2.615 5.847,-3.934 9.651,-3.97 v 2.535 C 4.713,-3.19 2.139,-2.124 0,0"
             style="fill:#ffffff;fill-opacity:1;fill-rule:nonzero;stroke:none"
             id="path154"
             inkscape:connector-curvature="0" /></g><g
           id="g156"
           transform="translate(127.85581,687.29479)"><path
             d="m 0,0 c 0,0 18.693,45.152 27.155,58.152 3.234,4.969 15.646,14.634 24.656,-0.333 8.121,-13.49 27.654,-58.085 27.654,-58.085 H 57.623 l -3.976,8.909 -20.995,0.066 7.183,15.159 h 7.697 L 40.425,41.419 21.852,0 Z"
             style="fill:#ffffff;fill-opacity:1;fill-rule:nonzero;stroke:none"
             id="path158"
             inkscape:connector-curvature="0" /></g></g></g></g></svg>
